<svg xmlns="http://www.w3.org/2000/svg" viewBox="0 0 1200 630" width="1200" height="630">
  <defs>
    <linearGradient id="bg" x1="0" y1="0" x2="1" y2="1">
      <stop offset="0"   stop-color="#0e141b"/>
      <stop offset=".45" stop-color="#0e141b"/>
      <stop offset="1"   stop-color="#0a2a33"/>
    </linearGradient>
    <linearGradient id="accent" x1="0" y1="0" x2="1" y2="0">
      <stop offset="0" stop-color="#5dc9e2"/>
      <stop offset="1" stop-color="#00ADD8"/>
    </linearGradient>
    <radialGradient id="glow1" cx=".15" cy=".2" r=".4">
      <stop offset="0" stop-color="#00ADD8" stop-opacity=".25"/>
      <stop offset="1" stop-color="#00ADD8" stop-opacity="0"/>
    </radialGradient>
    <radialGradient id="glow2" cx=".85" cy=".85" r=".35">
      <stop offset="0" stop-color="#5dc9e2" stop-opacity=".2"/>
      <stop offset="1" stop-color="#5dc9e2" stop-opacity="0"/>
    </radialGradient>
    <pattern id="grid" x="0" y="0" width="40" height="40" patternUnits="userSpaceOnUse">
      <path d="M 40 0 L 0 0 0 40" fill="none" stroke="#1c2733" stroke-width="1"/>
    </pattern>
  </defs>

  <!-- Background -->
  <rect width="1200" height="630" fill="url(#bg)"/>
  <rect width="1200" height="630" fill="url(#grid)" opacity=".6"/>
  <rect width="1200" height="630" fill="url(#glow1)"/>
  <rect width="1200" height="630" fill="url(#glow2)"/>

  <!-- Top accent bar -->
  <rect x="0" y="0" width="1200" height="6" fill="url(#accent)"/>

  <!-- Logo badge -->
  <g transform="translate(80,90)">
    <rect width="96" height="96" rx="22" fill="url(#accent)"/>
    <text x="48" y="58" text-anchor="middle" dominant-baseline="middle"
          font-family="ui-monospace, 'SF Mono', Menlo, monospace"
          font-weight="800" font-size="46" fill="#0e141b"
          letter-spacing="-1">Go</text>
  </g>

  <!-- "Interactive course" eyebrow -->
  <g transform="translate(200,110)">
    <rect x="0" y="0" width="260" height="34" rx="6"
          fill="none" stroke="#00ADD8" stroke-width="1.5"/>
    <text x="130" y="22" text-anchor="middle"
          font-family="ui-monospace, 'SF Mono', Menlo, monospace"
          font-weight="700" font-size="13" fill="#5dc9e2"
          letter-spacing="2">INTERACTIVE GO COURSE</text>
  </g>

  <!-- Main heading -->
  <text x="80" y="290"
        font-family="-apple-system, 'Segoe UI', system-ui, Roboto, sans-serif"
        font-weight="800" font-size="88" fill="#ffffff"
        letter-spacing="-2">Learn Go</text>
  <text x="80" y="390"
        font-family="-apple-system, 'Segoe UI', system-ui, Roboto, sans-serif"
        font-weight="800" font-size="88" fill="url(#accent)"
        letter-spacing="-2">from scratch.</text>

  <!-- Subtitle -->
  <text x="80" y="450"
        font-family="-apple-system, 'Segoe UI', system-ui, Roboto, sans-serif"
        font-weight="400" font-size="28" fill="#9ba9b9">
    30 chapters · runnable examples · quizzes · exercises
  </text>

  <!-- Bottom row: features as pills -->
  <g transform="translate(80,500)" font-family="-apple-system, 'Segoe UI', system-ui, sans-serif" font-size="18" font-weight="600">
    <g fill="#e6edf3">
      <rect x="0"   y="0" width="160" height="46" rx="23" fill="#151d26" stroke="#27323f"/>
      <text x="80"  y="30" text-anchor="middle">Hello World</text>

      <rect x="180" y="0" width="160" height="46" rx="23" fill="#151d26" stroke="#27323f"/>
      <text x="260" y="30" text-anchor="middle">Goroutines</text>

      <rect x="360" y="0" width="160" height="46" rx="23" fill="#151d26" stroke="#27323f"/>
      <text x="440" y="30" text-anchor="middle">Channels</text>

      <rect x="540" y="0" width="160" height="46" rx="23" fill="#151d26" stroke="#27323f"/>
      <text x="620" y="30" text-anchor="middle">Generics</text>

      <rect x="720" y="0" width="160" height="46" rx="23" fill="#151d26" stroke="#27323f"/>
      <text x="800" y="30" text-anchor="middle">Testing</text>
    </g>
  </g>

  <!-- Byline -->
  <text x="1120" y="585" text-anchor="end"
        font-family="-apple-system, 'Segoe UI', system-ui, sans-serif"
        font-weight="600" font-size="18" fill="#9ba9b9">
    by Cyrus Mobini
  </text>
  <text x="1120" y="555" text-anchor="end"
        font-family="ui-monospace, 'SF Mono', Menlo, monospace"
        font-weight="600" font-size="14" fill="#5dc9e2"
        letter-spacing="1">GITHUB.COM/CYRUS2281</text>

  <!-- Decorative code snippet in corner -->
  <g transform="translate(780,80)" opacity=".9">
    <rect x="0" y="0" width="360" height="160" rx="14" fill="#0b1016" stroke="#1c2733"/>
    <circle cx="20" cy="22" r="5" fill="#ff6b81"/>
    <circle cx="38" cy="22" r="5" fill="#e0a868"/>
    <circle cx="56" cy="22" r="5" fill="#7ed8a3"/>
    <g font-family="ui-monospace, 'SF Mono', Menlo, monospace" font-size="14">
      <text x="20" y="70"  fill="#4dc8ec">package</text>
      <text x="104" y="70" fill="#e6edf3">main</text>
      <text x="20" y="94"  fill="#4dc8ec">func</text>
      <text x="72" y="94"  fill="#6cb6f5">main</text>
      <text x="116" y="94" fill="#b3c0cd">() {</text>
      <text x="40" y="118" fill="#d68bd2">fmt</text>
      <text x="68" y="118" fill="#b3c0cd">.</text>
      <text x="76" y="118" fill="#6cb6f5">Println</text>
      <text x="140" y="118" fill="#b3c0cd">(</text>
      <text x="148" y="118" fill="#e0a868">"Hello, Go!"</text>
      <text x="256" y="118" fill="#b3c0cd">)</text>
      <text x="20" y="142"  fill="#b3c0cd">}</text>
    </g>
  </g>
</svg>
